{
    "accessors" : [
        {
            "bufferView" : 0, 
            "componentType" : 5123, 
            "count" : 4176, 
            "max" : [
                1889
            ], 
            "min" : [
                0
            ], 
            "type" : "SCALAR"
        }, 
        {
            "bufferView" : 1, 
            "componentType" : 5126, 
            "count" : 1890, 
            "max" : [
                1827.7630615234375, 
                453.9403381347656, 
                3087.867431640625
            ], 
            "min" : [
                -1795.208984375, 
                0.0, 
                -4503.1201171875
            ], 
            "type" : "VEC3"
        }, 
        {
            "bufferView" : 2, 
            "componentType" : 5126, 
            "count" : 1890, 
            "max" : [
                1.0, 
                1.0, 
                1.0
            ], 
            "min" : [
                -1.0, 
                -1.0, 
                -1.0
            ], 
            "type" : "VEC3"
        }, 
        {
            "bufferView" : 3, 
            "componentType" : 5126, 
            "count" : 1890, 
            "max" : [
                1.0, 
                1.0, 
                1.0, 
                1.0
            ], 
            "min" : [
                -1.0, 
                -1.0, 
                -1.0, 
                1.0
            ], 
            "type" : "VEC4"
        }, 
        {
            "bufferView" : 4, 
            "componentType" : 5126, 
            "count" : 1890, 
            "max" : [
                0.9974708557128906, 
                0.9975496530532837
            ], 
            "min" : [
                0.0024754595942795277, 
                0.05433189868927002
            ], 
            "type" : "VEC2"
        }, 
        {
            "bufferView" : 5, 
            "componentType" : 5126, 
            "count" : 1890, 
            "max" : [
                0.9974708557128906, 
                0.9975496530532837
            ], 
            "min" : [
                0.0024754595942795277, 
                0.05433189868927002
            ], 
            "type" : "VEC2"
        }
    ], 
    "asset" : {
        "generator" : "Soft8Soft Verge3D for 3ds Max plug-in", 
        "version" : "2.0"
    }, 
    "bufferViews" : [
        {
            "buffer" : 0, 
            "byteLength" : 8352, 
            "byteOffset" : 0, 
            "target" : 34963
        }, 
        {
            "buffer" : 0, 
            "byteLength" : 22680, 
            "byteOffset" : 8352, 
            "target" : 34962
        }, 
        {
            "buffer" : 0, 
            "byteLength" : 22680, 
            "byteOffset" : 31032, 
            "target" : 34962
        }, 
        {
            "buffer" : 0, 
            "byteLength" : 30240, 
            "byteOffset" : 53712, 
            "target" : 34962
        }, 
        {
            "buffer" : 0, 
            "byteLength" : 15120, 
            "byteOffset" : 83952, 
            "target" : 34962
        }, 
        {
            "buffer" : 0, 
            "byteLength" : 15120, 
            "byteOffset" : 99072, 
            "target" : 34962
        }
    ], 
    "buffers" : [
        {
            "byteLength" : 114192, 
            "uri" : "ENV.bin"
        }
    ], 
    "cameras" : [
        {
            "extensions" : {
                "S8S_v3d_camera_data" : {
                    "controls" : "ORBIT", 
                    "enablePan" : true, 
                    "moveSpeed" : 1.0, 
                    "orbitMaxDistance" : 5000.0, 
                    "orbitMaxPolarAngle" : 3.141592653589793, 
                    "orbitMinDistance" : 0.0, 
                    "orbitMinPolarAngle" : 0.0, 
                    "orbitTarget" : [
                        -43.67078399658203, 
                        66.97735595703125, 
                        17.924863815307617
                    ], 
                    "rotateSpeed" : 1.0, 
                    "viewportFitInitialAspect" : 1.3333333730697632, 
                    "viewportFitType" : "VERTICAL"
                }
            }, 
            "name" : "Camera001", 
            "perspective" : {
                "aspectRatio" : 1.3333333730697632, 
                "yfov" : 0.6024156988215424, 
                "zfar" : 1000.0, 
                "znear" : 1.0
            }, 
            "type" : "perspective"
        }
    ], 
    "extensions" : {
        "S8S_v3d_data" : {
            "lights" : [
                {
                    "angle" : 0.5235987755982988, 
                    "color" : [
                        0.847058892250061, 
                        0.8313726186752319, 
                        0.8000000715255737
                    ], 
                    "decay" : 1.0, 
                    "intensity" : 510.84259033203125, 
                    "name" : "VRayLight001", 
                    "penumbra" : 0.5, 
                    "profile" : "max", 
                    "type" : "spot"
                }, 
                {
                    "angle" : 0.5235987755982988, 
                    "color" : [
                        0.847058892250061, 
                        1.0, 
                        1.0
                    ], 
                    "decay" : 1.0, 
                    "intensity" : 1532.52783203125, 
                    "name" : "VRayLight002", 
                    "penumbra" : 0.5, 
                    "profile" : "max", 
                    "type" : "spot"
                }, 
                {
                    "color" : [
                        0.0, 
                        0.0, 
                        0.0
                    ], 
                    "intensity" : 1, 
                    "name" : "__AMBIENT__", 
                    "profile" : "max", 
                    "type" : "ambient"
                }
            ]
        }
    }, 
    "extensionsUsed" : [
        "S8S_v3d_texture_data", 
        "S8S_v3d_material_data", 
        "S8S_v3d_camera_data", 
        "S8S_v3d_data", 
        "S8S_v3d_node_data", 
        "S8S_v3d_scene_data"
    ], 
    "images" : [
        {
            "uri" : "CompleteMap.jpg"
        }, 
        {
            "uri" : "TotalLightingMap.jpg"
        }
    ], 
    "materials" : [
        {
            "doubleSided" : false, 
            "emissiveFactor" : [
                0, 
                0, 
                0
            ], 
            "extensions" : {
                "S8S_v3d_material_data" : {
                    "depthWrite" : true, 
                    "nodeGraph" : {
                        "edges" : [
                            {
                                "fromNode" : 1, 
                                "fromOutput" : 0, 
                                "toInput" : 0, 
                                "toNode" : 0
                            }, 
                            {
                                "fromNode" : 1, 
                                "fromOutput" : 1, 
                                "toInput" : 1, 
                                "toNode" : 0
                            }, 
                            {
                                "fromNode" : 2, 
                                "fromOutput" : 0, 
                                "toInput" : 1, 
                                "toNode" : 1
                            }, 
                            {
                                "fromNode" : 3, 
                                "fromOutput" : 0, 
                                "toInput" : 5, 
                                "toNode" : 1
                            }
                        ], 
                        "nodes" : [
                            {
                                "inputs" : [
                                    [
                                        1, 
                                        1, 
                                        1, 
                                        1
                                    ]
                                ], 
                                "is_active_output" : true, 
                                "name" : "MaxOutput", 
                                "outputs" : [], 
                                "type" : "OUTPUT_MAX"
                            }, 
                            {
                                "IOR" : 1.5, 
                                "inputFactors" : [
                                    0, 
                                    1.0, 
                                    0, 
                                    0, 
                                    0, 
                                    1.0, 
                                    0, 
                                    0, 
                                    0, 
                                    0, 
                                    0, 
                                    0
                                ], 
                                "inputs" : [
                                    [
                                        0.5879999995231628, 
                                        0.5879999995231628, 
                                        0.5879999995231628, 
                                        1.0
                                    ], 
                                    [
                                        0.5879999995231628, 
                                        0.5879999995231628, 
                                        0.5879999995231628, 
                                        1.0
                                    ], 
                                    [
                                        0.8999999761581421, 
                                        0.8999999761581421, 
                                        0.8999999761581421, 
                                        1.0
                                    ], 
                                    0.10000000149011612, 
                                    0.0, 
                                    [
                                        0.0, 
                                        0.0, 
                                        0.0, 
                                        1.0
                                    ], 
                                    1.0, 
                                    [
                                        0, 
                                        0, 
                                        0, 
                                        0
                                    ], 
                                    [
                                        0, 
                                        0, 
                                        0
                                    ], 
                                    [
                                        0, 
                                        0, 
                                        0, 
                                        0
                                    ], 
                                    [
                                        0, 
                                        0, 
                                        0, 
                                        0
                                    ], 
                                    0
                                ], 
                                "is_active_output" : false, 
                                "name" : "ENV Mat", 
                                "outputs" : [
                                    [
                                        0, 
                                        0, 
                                        0, 
                                        0
                                    ]
                                ], 
                                "selfIllumColorOn" : false, 
                                "type" : "MATERIAL_MAX"
                            }, 
                            {
                                "alphaAsMono" : false, 
                                "alphaAsRGB" : false, 
                                "alphaSource" : "NONE", 
                                "inputs" : [
                                    0.0, 
                                    0.0, 
                                    1.0, 
                                    1.0, 
                                    0.0
                                ], 
                                "is_active_output" : false, 
                                "name" : "Map #17", 
                                "outputs" : [
                                    [
                                        0, 
                                        0, 
                                        0, 
                                        0
                                    ]
                                ], 
                                "texture" : 0, 
                                "type" : "BITMAP_MAX", 
                                "uvIndex" : 0
                            }, 
                            {
                                "alphaAsMono" : false, 
                                "alphaAsRGB" : false, 
                                "alphaSource" : "NONE", 
                                "inputs" : [
                                    0.0, 
                                    0.0, 
                                    1.0, 
                                    1.0, 
                                    0.0
                                ], 
                                "is_active_output" : false, 
                                "name" : "Map #18", 
                                "outputs" : [
                                    [
                                        0, 
                                        0, 
                                        0, 
                                        0
                                    ]
                                ], 
                                "texture" : 1, 
                                "type" : "BITMAP_MAX", 
                                "uvIndex" : 0
                            }
                        ]
                    }, 
                    "profile" : "max", 
                    "useShadeless" : false
                }
            }, 
            "name" : "ENV Mat"
        }, 
        {
            "extensions" : {
                "S8S_v3d_material_data" : {
                    "depthWrite" : true, 
                    "nodeGraph" : {
                        "edges" : [], 
                        "nodes" : [
                            {
                                "inputs" : [
                                    [
                                        0.0, 
                                        0.0, 
                                        0.0, 
                                        1
                                    ]
                                ], 
                                "is_active_output" : true, 
                                "name" : "World Output", 
                                "outputs" : [], 
                                "type" : "OUTPUT_MAX"
                            }
                        ]
                    }, 
                    "profile" : "max", 
                    "useShadeless" : false
                }
            }, 
            "name" : "Verge3D_Environment"
        }
    ], 
    "meshes" : [
        {
            "name" : "ENV", 
            "primitives" : [
                {
                    "attributes" : {
                        "NORMAL" : 2, 
                        "POSITION" : 1, 
                        "TANGENT" : 3, 
                        "TEXCOORD_0" : 4, 
                        "TEXCOORD_1" : 5
                    }, 
                    "indices" : 0, 
                    "material" : 0, 
                    "mode" : 4
                }
            ]
        }
    ], 
    "nodes" : [
        {
            "extensions" : {
                "S8S_v3d_node_data" : {
                    "hidden" : false, 
                    "useCastShadows" : true, 
                    "useShadows" : true
                }
            }, 
            "mesh" : 0, 
            "name" : "ENV"
        }, 
        {
            "camera" : 0, 
            "extensions" : {
                "S8S_v3d_node_data" : {
                    "hidden" : false
                }
            }, 
            "name" : "Camera001", 
            "rotation" : [
                -0.02847054973244667, 
                0.409701406955719, 
                0.01279433909803629, 
                0.9116855263710022
            ], 
            "scale" : [
                1.0000001192092896, 
                1.0000001192092896, 
                1.0
            ], 
            "translation" : [
                686.4111938476562, 
                128.0166473388672, 
                666.1846313476562
            ]
        }, 
        {
            "extensions" : {
                "S8S_v3d_node_data" : {
                    "hidden" : false
                }
            }, 
            "name" : "Camera001.Target", 
            "translation" : [
                -43.67078399658203, 
                66.97735595703125, 
                17.924863815307617
            ]
        }, 
        {
            "extensions" : {
                "S8S_v3d_node_data" : {
                    "hidden" : false, 
                    "light" : 0
                }
            }, 
            "name" : "VRayLight001", 
            "rotation" : [
                -0.6521399617195129, 
                0.05707225203514099, 
                -0.04934024438261986, 
                0.754335343837738
            ], 
            "scale" : [
                0.8197725415229797, 
                0.819772481918335, 
                0.8197726011276245
            ], 
            "translation" : [
                -6.350730895996094, 
                1013.3092651367188, 
                162.9844207763672
            ]
        }, 
        {
            "extensions" : {
                "S8S_v3d_node_data" : {
                    "hidden" : false, 
                    "light" : 1
                }
            }, 
            "name" : "VRayLight002", 
            "rotation" : [
                0.8773659467697144, 
                -1.2626903078682972e-08, 
                7.967013715415305e-09, 
                -0.4798218011856079
            ], 
            "scale" : [
                1.0, 
                1.0, 
                1.0
            ], 
            "translation" : [
                165.47767639160156, 
                922.3040771484375, 
                -4004.38134765625
            ]
        }
    ], 
    "samplers" : [
        {}
    ], 
    "scene" : 0, 
    "scenes" : [
        {
            "extensions" : {
                "S8S_v3d_scene_data" : {
                    "light" : 2, 
                    "postprocessing" : [], 
                    "shadowMap" : {
                        "renderReverseSided" : false, 
                        "renderSingleSided" : true, 
                        "type" : "PCFSOFT"
                    }, 
                    "worldMaterial" : 1
                }
            }, 
            "extras" : {
                "animFrameRate" : 30
            }, 
            "name" : "Scene", 
            "nodes" : [
                0, 
                1, 
                2, 
                3, 
                4
            ]
        }
    ], 
    "textures" : [
        {
            "extensions" : {
                "S8S_v3d_texture_data" : {
                    "anisotropy" : 1, 
                    "colorSpace" : "srgb", 
                    "isCubeTexture" : false
                }
            }, 
            "name" : "Map #17", 
            "sampler" : 0, 
            "source" : 0
        }, 
        {
            "extensions" : {
                "S8S_v3d_texture_data" : {
                    "anisotropy" : 1, 
                    "colorSpace" : "srgb", 
                    "isCubeTexture" : false
                }
            }, 
            "name" : "Map #18", 
            "sampler" : 0, 
            "source" : 1
        }
    ]
}
